<svg xmlns="http://www.w3.org/2000/svg" xmlns:xlink="http://www.w3.org/1999/xlink" width="500" zoomAndPan="magnify" viewBox="0 0 375 374.999991" height="500" preserveAspectRatio="xMidYMid meet" version="1.0"><defs><g/><clipPath id="3623a2ff04"><path d="M 148.109375 109.0625 L 151.859375 109.0625 L 151.859375 175.675781 L 148.109375 175.675781 Z M 148.109375 109.0625 " clip-rule="nonzero"/></clipPath></defs><path fill="#fefffe" d="M 106.40625 111.085938 C 113.007812 113.21875 118.589844 116.894531 123.15625 122.113281 C 123.652344 123.613281 123.9375 125.167969 124.003906 126.777344 C 126.003906 129.648438 127.5625 132.757812 128.667969 136.105469 C 129.863281 141.128906 130.640625 146.214844 131 151.371094 C 131.972656 151.765625 132.964844 152.117188 133.96875 152.429688 C 134.535156 153.84375 134.535156 155.257812 133.96875 156.671875 C 129.441406 156.941406 124.917969 157.082031 120.398438 157.09375 C 117.765625 153.871094 114.375 152.386719 110.222656 152.640625 C 110.371094 145.371094 106.835938 142.191406 99.621094 143.101562 C 96.539062 144.277344 94.5625 146.46875 93.683594 149.675781 C 85.738281 147.679688 79.378906 150.011719 74.601562 156.671875 C 66.292969 157.6875 57.953125 157.96875 49.585938 157.519531 C 48.453125 156.105469 48.453125 154.691406 49.585938 153.277344 C 54.46875 151.929688 58.921875 149.738281 62.941406 146.707031 C 64.359375 142.382812 65.984375 138.140625 67.820312 133.984375 C 67.003906 132.375 66.792969 130.675781 67.183594 128.894531 C 68.21875 127.152344 69.421875 125.527344 70.785156 124.019531 C 71.636719 123.878906 72.484375 123.738281 73.332031 123.59375 C 81.5625 115.171875 91.597656 111.355469 103.4375 112.144531 C 104.5 111.851562 105.488281 111.496094 106.40625 111.085938 Z M 95.382812 116.597656 C 106.082031 115.980469 114.777344 119.796875 121.460938 128.046875 C 122.28125 129.121094 122.84375 130.253906 123.15625 131.441406 C 113.167969 119.820312 100.945312 116.496094 86.476562 121.476562 C 79.359375 125.339844 73.777344 130.78125 69.726562 137.800781 C 72.46875 128.890625 78.195312 122.601562 86.902344 118.929688 C 89.710938 117.875 92.539062 117.097656 95.382812 116.597656 Z M 100.894531 147.976562 C 103.105469 147.527344 104.519531 148.375 105.132812 150.523438 C 104.152344 153.394531 102.453125 153.960938 100.046875 152.21875 C 99.328125 150.578125 99.613281 149.164062 100.894531 147.976562 Z M 100.894531 147.976562 " fill-opacity="1" fill-rule="evenodd"/><path fill="#fefffe" d="M 101.316406 144.160156 C 102.09375 144.558594 102.871094 144.984375 103.648438 145.433594 C 104.886719 144.671875 105.804688 144.957031 106.40625 146.28125 C 106.316406 146.53125 106.175781 146.742188 105.980469 146.917969 C 106.410156 147.839844 107.117188 148.332031 108.101562 148.402344 C 108.070312 149.007812 108.210938 149.574219 108.527344 150.097656 C 108.011719 150.679688 107.589844 151.316406 107.253906 152.007812 C 107.605469 152.628906 107.675781 153.261719 107.464844 153.914062 C 106.535156 154.378906 105.617188 154.800781 104.710938 155.1875 C 104.144531 155.609375 104.144531 156.035156 104.710938 156.457031 C 105.824219 157.410156 106.953125 157.339844 108.101562 156.246094 C 108.90625 155.78125 109.1875 155.214844 108.949219 154.550781 C 110.074219 154.339844 111.203125 154.269531 112.34375 154.339844 C 112.34375 154.902344 112.34375 155.46875 112.34375 156.035156 C 113.265625 156.070312 114.113281 156.355469 114.886719 156.882812 C 115.363281 156.316406 115.925781 156.105469 116.582031 156.246094 C 117.289062 156.953125 117.996094 157.660156 118.703125 158.367188 C 118.339844 158.660156 118.058594 159.011719 117.855469 159.425781 C 118.382812 160.199219 118.667969 161.046875 118.703125 161.972656 C 119.269531 161.972656 119.835938 161.972656 120.398438 161.972656 C 120.398438 163.101562 120.398438 164.230469 120.398438 165.363281 C 119.710938 165.304688 119.214844 165.585938 118.914062 166.210938 C 118.085938 167.378906 118.15625 168.441406 119.128906 169.390625 C 118.722656 170.21875 118.15625 170.925781 117.429688 171.511719 C 116.773438 171.652344 116.210938 171.441406 115.734375 170.875 C 114.890625 171.652344 113.902344 172.074219 112.765625 172.148438 C 112.765625 172.714844 112.765625 173.277344 112.765625 173.84375 C 111.636719 173.84375 110.503906 173.84375 109.375 173.84375 C 109.445312 173.285156 109.304688 172.789062 108.949219 172.359375 C 108.054688 172.125 107.207031 171.769531 106.40625 171.300781 C 105.929688 171.863281 105.367188 172.078125 104.710938 171.9375 C 104.066406 171.363281 103.5 170.726562 103.015625 170.027344 C 103.96875 168.914062 103.894531 167.785156 102.800781 166.636719 C 102.226562 166.261719 101.589844 166.121094 100.894531 166.210938 C 100.894531 165.082031 100.894531 163.949219 100.894531 162.820312 C 101.453125 162.890625 101.949219 162.75 102.378906 162.394531 C 103.746094 161.042969 103.675781 159.84375 102.164062 158.789062 C 102.808594 158.21875 103.375 157.582031 103.863281 156.882812 C 103.484375 156.421875 103.058594 156.421875 102.589844 156.882812 C 102.117188 156.234375 101.480469 155.808594 100.683594 155.609375 C 100.023438 155.800781 99.386719 155.871094 98.773438 155.824219 C 98.207031 153.980469 97.21875 152.425781 95.804688 151.15625 C 96.21875 150.523438 96.644531 149.886719 97.078125 149.25 C 96.332031 147.953125 96.613281 146.964844 97.925781 146.28125 C 98.175781 146.371094 98.386719 146.511719 98.5625 146.707031 C 99.484375 146.277344 99.976562 145.570312 100.046875 144.585938 C 100.59375 144.6875 101.015625 144.542969 101.316406 144.160156 Z M 100.894531 147.976562 C 99.613281 149.164062 99.328125 150.578125 100.046875 152.21875 C 102.453125 153.960938 104.152344 153.394531 105.132812 150.523438 C 104.519531 148.375 103.105469 147.527344 100.894531 147.976562 Z M 109.796875 159.851562 C 113.835938 159.859375 115.460938 161.839844 114.675781 165.789062 C 112.339844 169.007812 109.796875 169.148438 107.042969 166.210938 C 106.113281 163.269531 107.03125 161.148438 109.796875 159.851562 Z M 109.796875 159.851562 " fill-opacity="1" fill-rule="evenodd"/><path fill="#fefffe" d="M 84.355469 151.371094 C 85.308594 151.839844 86.085938 152.546875 86.6875 153.488281 C 87.839844 152.964844 88.96875 152.964844 90.082031 153.488281 C 90.546875 152.691406 91.113281 151.984375 91.777344 151.371094 C 93.207031 151.84375 94.550781 152.480469 95.804688 153.277344 C 95.523438 153.84375 95.238281 154.410156 94.957031 154.972656 C 96.070312 155.664062 97.0625 156.511719 97.925781 157.519531 C 98.660156 157.792969 99.367188 157.722656 100.046875 157.304688 C 100.710938 158.660156 101.417969 160.003906 102.164062 161.335938 C 101.707031 161.742188 101.214844 162.09375 100.683594 162.394531 C 100.398438 163.808594 100.398438 165.222656 100.683594 166.636719 C 101.109375 166.992188 101.605469 167.132812 102.164062 167.058594 C 102.03125 168.519531 101.679688 169.933594 101.105469 171.300781 C 100.183594 171.484375 99.265625 171.625 98.347656 171.722656 C 97.4375 172.847656 96.449219 173.90625 95.382812 174.902344 C 95.664062 175.46875 95.945312 176.035156 96.230469 176.601562 C 94.832031 177.277344 93.421875 177.914062 91.988281 178.507812 C 91.601562 178.15625 91.320312 177.734375 91.140625 177.238281 C 89.605469 176.746094 88.050781 176.675781 86.476562 177.023438 C 86.199219 177.65625 85.773438 178.148438 85.203125 178.507812 C 83.964844 177.957031 82.691406 177.53125 81.386719 177.238281 C 81.472656 176.355469 81.542969 175.507812 81.601562 174.691406 C 80.609375 173.703125 79.621094 172.714844 78.632812 171.722656 C 77.457031 172.820312 76.609375 172.679688 76.085938 171.300781 C 75.792969 170.359375 75.441406 169.4375 75.027344 168.542969 C 75.644531 167.878906 76.351562 167.316406 77.148438 166.847656 C 76.882812 165.660156 76.601562 164.457031 76.300781 163.242188 C 75.773438 162.925781 75.210938 162.785156 74.601562 162.820312 C 74.855469 161.359375 75.277344 159.945312 75.875 158.578125 C 76.84375 158.289062 77.832031 158.21875 78.84375 158.367188 C 79.625 157.234375 80.472656 156.175781 81.386719 155.1875 C 81.078125 154.484375 81.007812 153.777344 81.175781 153.066406 C 82.351562 152.65625 83.410156 152.089844 84.355469 151.371094 Z M 87.324219 159.003906 C 93.1875 159.28125 95.378906 162.25 93.898438 167.90625 C 91.078125 171.34375 87.828125 171.765625 84.144531 169.179688 C 81.4375 164.566406 82.496094 161.175781 87.324219 159.003906 Z M 87.324219 159.003906 " fill-opacity="1" fill-rule="evenodd"/><g clip-path="url(#3623a2ff04)"><path fill="#ffffff" d="M 148.109375 109.0625 L 151.625 109.0625 L 151.625 175.859375 L 148.109375 175.859375 Z M 148.109375 109.0625 " fill-opacity="1" fill-rule="nonzero"/></g><g fill="#ffffff" fill-opacity="1"><g transform="translate(189.243522, 139.555714)"><g><path d="M 2.671875 0 C 2.429688 0 2.222656 -0.078125 2.046875 -0.234375 C 1.878906 -0.398438 1.796875 -0.613281 1.796875 -0.875 L 1.796875 -21.921875 C 1.796875 -22.160156 1.878906 -22.367188 2.046875 -22.546875 C 2.222656 -22.722656 2.429688 -22.8125 2.671875 -22.8125 L 9.0625 -22.8125 C 9.300781 -22.8125 9.503906 -22.722656 9.671875 -22.546875 C 9.847656 -22.367188 9.9375 -22.160156 9.9375 -21.921875 L 9.9375 -15.078125 L 15.21875 -15.078125 L 15.21875 -21.921875 C 15.21875 -22.160156 15.300781 -22.367188 15.46875 -22.546875 C 15.644531 -22.722656 15.851562 -22.8125 16.09375 -22.8125 L 22.484375 -22.8125 C 22.722656 -22.8125 22.925781 -22.722656 23.09375 -22.546875 C 23.269531 -22.367188 23.359375 -22.160156 23.359375 -21.921875 L 23.359375 -0.875 C 23.359375 -0.632812 23.269531 -0.425781 23.09375 -0.25 C 22.925781 -0.0820312 22.722656 0 22.484375 0 L 16.09375 0 C 15.851562 0 15.644531 -0.0820312 15.46875 -0.25 C 15.300781 -0.425781 15.21875 -0.632812 15.21875 -0.875 L 15.21875 -7.921875 L 9.9375 -7.921875 L 9.9375 -0.875 C 9.9375 -0.632812 9.847656 -0.425781 9.671875 -0.25 C 9.503906 -0.0820312 9.300781 0 9.0625 0 Z M 2.671875 0 "/></g></g></g><g fill="#ffffff" fill-opacity="1"><g transform="translate(214.393823, 139.555714)"><g><path d="M 12.1875 0.328125 C 8.925781 0.328125 6.34375 -0.414062 4.4375 -1.90625 C 2.539062 -3.394531 1.59375 -5.625 1.59375 -8.59375 L 1.59375 -21.921875 C 1.59375 -22.160156 1.679688 -22.367188 1.859375 -22.546875 C 2.035156 -22.722656 2.238281 -22.8125 2.46875 -22.8125 L 8.859375 -22.8125 C 9.097656 -22.8125 9.300781 -22.722656 9.46875 -22.546875 C 9.644531 -22.367188 9.734375 -22.160156 9.734375 -21.921875 L 9.734375 -8.734375 C 9.734375 -7.910156 9.9375 -7.285156 10.34375 -6.859375 C 10.75 -6.429688 11.351562 -6.21875 12.15625 -6.21875 C 12.957031 -6.21875 13.554688 -6.429688 13.953125 -6.859375 C 14.359375 -7.285156 14.5625 -7.910156 14.5625 -8.734375 L 14.5625 -21.921875 C 14.5625 -22.160156 14.644531 -22.367188 14.8125 -22.546875 C 14.988281 -22.722656 15.195312 -22.8125 15.4375 -22.8125 L 21.828125 -22.8125 C 22.066406 -22.8125 22.269531 -22.722656 22.4375 -22.546875 C 22.613281 -22.367188 22.703125 -22.160156 22.703125 -21.921875 L 22.703125 -8.59375 C 22.703125 -5.625 21.753906 -3.394531 19.859375 -1.90625 C 17.972656 -0.414062 15.414062 0.328125 12.1875 0.328125 Z M 12.1875 0.328125 "/></g></g></g><g fill="#ffffff" fill-opacity="1"><g transform="translate(238.69709, 139.555714)"><g><path d="M 0.71875 0 C 0.519531 0 0.347656 -0.0664062 0.203125 -0.203125 C 0.0664062 -0.347656 0 -0.519531 0 -0.71875 C 0 -0.800781 0.0078125 -0.875 0.03125 -0.9375 L 7.296875 -21.734375 C 7.378906 -22.015625 7.539062 -22.265625 7.78125 -22.484375 C 8.019531 -22.703125 8.347656 -22.8125 8.765625 -22.8125 L 15.828125 -22.8125 C 16.242188 -22.8125 16.570312 -22.703125 16.8125 -22.484375 C 17.050781 -22.265625 17.210938 -22.015625 17.296875 -21.734375 L 24.5625 -0.9375 C 24.582031 -0.875 24.59375 -0.800781 24.59375 -0.71875 C 24.59375 -0.519531 24.519531 -0.347656 24.375 -0.203125 C 24.238281 -0.0664062 24.070312 0 23.875 0 L 17.859375 0 C 17.203125 0 16.773438 -0.269531 16.578125 -0.8125 L 15.796875 -2.96875 L 8.796875 -2.96875 L 8.015625 -0.8125 C 7.816406 -0.269531 7.394531 0 6.75 0 Z M 10.453125 -9.3125 L 14.140625 -9.3125 L 12.28125 -15.375 Z M 10.453125 -9.3125 "/></g></g></g><g fill="#ffffff" fill-opacity="1"><g transform="translate(263.293565, 139.555714)"><g><path d="M 2.671875 0 C 2.429688 0 2.222656 -0.0820312 2.046875 -0.25 C 1.878906 -0.425781 1.796875 -0.632812 1.796875 -0.875 L 1.796875 -21.921875 C 1.796875 -22.160156 1.878906 -22.367188 2.046875 -22.546875 C 2.222656 -22.722656 2.429688 -22.8125 2.671875 -22.8125 L 7.8125 -22.8125 C 8.425781 -22.8125 8.875 -22.5625 9.15625 -22.0625 L 14.65625 -13.03125 L 14.65625 -21.921875 C 14.65625 -22.160156 14.742188 -22.367188 14.921875 -22.546875 C 15.097656 -22.722656 15.304688 -22.8125 15.546875 -22.8125 L 21.4375 -22.8125 C 21.675781 -22.8125 21.878906 -22.722656 22.046875 -22.546875 C 22.222656 -22.367188 22.3125 -22.160156 22.3125 -21.921875 L 22.3125 -0.875 C 22.3125 -0.632812 22.222656 -0.425781 22.046875 -0.25 C 21.878906 -0.0820312 21.675781 0 21.4375 0 L 16.296875 0 C 15.921875 0 15.632812 -0.0703125 15.4375 -0.21875 C 15.25 -0.375 15.085938 -0.550781 14.953125 -0.75 L 9.453125 -9.0625 L 9.453125 -0.875 C 9.453125 -0.632812 9.363281 -0.425781 9.1875 -0.25 C 9.007812 -0.0820312 8.800781 0 8.5625 0 Z M 2.671875 0 "/></g></g></g><g fill="#ffffff" fill-opacity="1"><g transform="translate(287.401367, 139.555714)"><g><path d="M 0.71875 0 C 0.519531 0 0.347656 -0.0664062 0.203125 -0.203125 C 0.0664062 -0.347656 0 -0.519531 0 -0.71875 C 0 -0.800781 0.0078125 -0.875 0.03125 -0.9375 L 7.296875 -21.734375 C 7.378906 -22.015625 7.539062 -22.265625 7.78125 -22.484375 C 8.019531 -22.703125 8.347656 -22.8125 8.765625 -22.8125 L 15.828125 -22.8125 C 16.242188 -22.8125 16.570312 -22.703125 16.8125 -22.484375 C 17.050781 -22.265625 17.210938 -22.015625 17.296875 -21.734375 L 24.5625 -0.9375 C 24.582031 -0.875 24.59375 -0.800781 24.59375 -0.71875 C 24.59375 -0.519531 24.519531 -0.347656 24.375 -0.203125 C 24.238281 -0.0664062 24.070312 0 23.875 0 L 17.859375 0 C 17.203125 0 16.773438 -0.269531 16.578125 -0.8125 L 15.796875 -2.96875 L 8.796875 -2.96875 L 8.015625 -0.8125 C 7.816406 -0.269531 7.394531 0 6.75 0 Z M 10.453125 -9.3125 L 14.140625 -9.3125 L 12.28125 -15.375 Z M 10.453125 -9.3125 "/></g></g></g><g fill="#ffffff" fill-opacity="1"><g transform="translate(177.899494, 171.444584)"><g><path d="M 1.9375 0 C 1.8125 0 1.710938 -0.0351562 1.640625 -0.109375 C 1.566406 -0.191406 1.53125 -0.289062 1.53125 -0.40625 L 1.53125 -11.921875 C 1.53125 -12.054688 1.566406 -12.160156 1.640625 -12.234375 C 1.710938 -12.304688 1.8125 -12.34375 1.9375 -12.34375 L 5.9375 -12.34375 C 7.15625 -12.34375 8.132812 -12.160156 8.875 -11.796875 C 9.613281 -11.429688 10.148438 -10.894531 10.484375 -10.1875 C 10.828125 -9.476562 11.007812 -8.601562 11.03125 -7.5625 C 11.039062 -7.039062 11.046875 -6.578125 11.046875 -6.171875 C 11.046875 -5.773438 11.039062 -5.316406 11.03125 -4.796875 C 11 -3.710938 10.816406 -2.816406 10.484375 -2.109375 C 10.148438 -1.398438 9.617188 -0.867188 8.890625 -0.515625 C 8.171875 -0.171875 7.21875 0 6.03125 0 Z M 3.265625 -1.5 L 5.9375 -1.5 C 6.75 -1.5 7.394531 -1.609375 7.875 -1.828125 C 8.363281 -2.054688 8.71875 -2.414062 8.9375 -2.90625 C 9.15625 -3.40625 9.269531 -4.0625 9.28125 -4.875 C 9.300781 -5.21875 9.3125 -5.519531 9.3125 -5.78125 C 9.3125 -6.050781 9.3125 -6.316406 9.3125 -6.578125 C 9.3125 -6.847656 9.300781 -7.15625 9.28125 -7.5 C 9.257812 -8.632812 8.988281 -9.472656 8.46875 -10.015625 C 7.945312 -10.566406 7.078125 -10.84375 5.859375 -10.84375 L 3.265625 -10.84375 Z M 3.265625 -1.5 "/></g></g></g><g fill="#ffffff" fill-opacity="1"><g transform="translate(190.05123, 171.444584)"><g><path d="M 1.9375 0 C 1.8125 0 1.710938 -0.0351562 1.640625 -0.109375 C 1.566406 -0.191406 1.53125 -0.289062 1.53125 -0.40625 L 1.53125 -11.9375 C 1.53125 -12.0625 1.566406 -12.160156 1.640625 -12.234375 C 1.710938 -12.304688 1.8125 -12.34375 1.9375 -12.34375 L 2.875 -12.34375 C 3 -12.34375 3.097656 -12.304688 3.171875 -12.234375 C 3.242188 -12.160156 3.28125 -12.0625 3.28125 -11.9375 L 3.28125 -0.40625 C 3.28125 -0.289062 3.242188 -0.191406 3.171875 -0.109375 C 3.097656 -0.0351562 3 0 2.875 0 Z M 1.9375 0 "/></g></g></g><g fill="#ffffff" fill-opacity="1"><g transform="translate(194.866068, 171.444584)"><g><path d="M 5.5 0.171875 C 4.476562 0.171875 3.617188 0.015625 2.921875 -0.296875 C 2.234375 -0.617188 1.703125 -1.03125 1.328125 -1.53125 C 0.960938 -2.03125 0.765625 -2.554688 0.734375 -3.109375 C 0.734375 -3.203125 0.769531 -3.285156 0.84375 -3.359375 C 0.925781 -3.429688 1.019531 -3.46875 1.125 -3.46875 L 2.03125 -3.46875 C 2.164062 -3.46875 2.269531 -3.429688 2.34375 -3.359375 C 2.414062 -3.296875 2.460938 -3.21875 2.484375 -3.125 C 2.554688 -2.84375 2.703125 -2.5625 2.921875 -2.28125 C 3.148438 -2.007812 3.472656 -1.78125 3.890625 -1.59375 C 4.304688 -1.414062 4.84375 -1.328125 5.5 -1.328125 C 6.507812 -1.328125 7.253906 -1.503906 7.734375 -1.859375 C 8.210938 -2.222656 8.453125 -2.703125 8.453125 -3.296875 C 8.453125 -3.710938 8.320312 -4.046875 8.0625 -4.296875 C 7.8125 -4.546875 7.425781 -4.769531 6.90625 -4.96875 C 6.394531 -5.175781 5.726562 -5.394531 4.90625 -5.625 C 4.039062 -5.875 3.328125 -6.144531 2.765625 -6.4375 C 2.203125 -6.726562 1.78125 -7.09375 1.5 -7.53125 C 1.226562 -7.96875 1.09375 -8.519531 1.09375 -9.1875 C 1.09375 -9.820312 1.257812 -10.390625 1.59375 -10.890625 C 1.9375 -11.390625 2.429688 -11.785156 3.078125 -12.078125 C 3.734375 -12.378906 4.515625 -12.53125 5.421875 -12.53125 C 6.148438 -12.53125 6.785156 -12.429688 7.328125 -12.234375 C 7.878906 -12.035156 8.335938 -11.773438 8.703125 -11.453125 C 9.066406 -11.128906 9.34375 -10.78125 9.53125 -10.40625 C 9.71875 -10.039062 9.816406 -9.679688 9.828125 -9.328125 C 9.828125 -9.242188 9.796875 -9.164062 9.734375 -9.09375 C 9.679688 -9.019531 9.585938 -8.984375 9.453125 -8.984375 L 8.515625 -8.984375 C 8.429688 -8.984375 8.34375 -9.003906 8.25 -9.046875 C 8.164062 -9.097656 8.101562 -9.1875 8.0625 -9.3125 C 7.988281 -9.789062 7.71875 -10.195312 7.25 -10.53125 C 6.78125 -10.863281 6.171875 -11.03125 5.421875 -11.03125 C 4.648438 -11.03125 4.023438 -10.878906 3.546875 -10.578125 C 3.078125 -10.285156 2.84375 -9.828125 2.84375 -9.203125 C 2.84375 -8.804688 2.953125 -8.472656 3.171875 -8.203125 C 3.398438 -7.941406 3.753906 -7.710938 4.234375 -7.515625 C 4.710938 -7.316406 5.34375 -7.101562 6.125 -6.875 C 7.0625 -6.613281 7.828125 -6.335938 8.421875 -6.046875 C 9.023438 -5.765625 9.472656 -5.410156 9.765625 -4.984375 C 10.054688 -4.554688 10.203125 -4.003906 10.203125 -3.328125 C 10.203125 -2.585938 10.003906 -1.957031 9.609375 -1.4375 C 9.222656 -0.914062 8.679688 -0.515625 7.984375 -0.234375 C 7.285156 0.0351562 6.457031 0.171875 5.5 0.171875 Z M 5.5 0.171875 "/></g></g></g><g fill="#ffffff" fill-opacity="1"><g transform="translate(205.836145, 171.444584)"><g><path d="M 4.640625 0 C 4.523438 0 4.425781 -0.0351562 4.34375 -0.109375 C 4.269531 -0.191406 4.234375 -0.289062 4.234375 -0.40625 L 4.234375 -10.78125 L 0.84375 -10.78125 C 0.726562 -10.78125 0.628906 -10.816406 0.546875 -10.890625 C 0.472656 -10.960938 0.4375 -11.0625 0.4375 -11.1875 L 0.4375 -11.921875 C 0.4375 -12.054688 0.472656 -12.160156 0.546875 -12.234375 C 0.628906 -12.304688 0.726562 -12.34375 0.84375 -12.34375 L 9.34375 -12.34375 C 9.476562 -12.34375 9.582031 -12.304688 9.65625 -12.234375 C 9.726562 -12.160156 9.765625 -12.054688 9.765625 -11.921875 L 9.765625 -11.1875 C 9.765625 -11.0625 9.726562 -10.960938 9.65625 -10.890625 C 9.582031 -10.816406 9.476562 -10.78125 9.34375 -10.78125 L 5.984375 -10.78125 L 5.984375 -0.40625 C 5.984375 -0.289062 5.941406 -0.191406 5.859375 -0.109375 C 5.785156 -0.0351562 5.6875 0 5.5625 0 Z M 4.640625 0 "/></g></g></g><g fill="#ffffff" fill-opacity="1"><g transform="translate(216.047833, 171.444584)"><g><path d="M 1.9375 0 C 1.8125 0 1.710938 -0.0351562 1.640625 -0.109375 C 1.566406 -0.191406 1.53125 -0.289062 1.53125 -0.40625 L 1.53125 -11.921875 C 1.53125 -12.054688 1.566406 -12.160156 1.640625 -12.234375 C 1.710938 -12.304688 1.8125 -12.34375 1.9375 -12.34375 L 6.25 -12.34375 C 7.570312 -12.34375 8.617188 -12.03125 9.390625 -11.40625 C 10.171875 -10.789062 10.5625 -9.867188 10.5625 -8.640625 C 10.5625 -7.734375 10.332031 -6.992188 9.875 -6.421875 C 9.425781 -5.859375 8.816406 -5.460938 8.046875 -5.234375 L 10.765625 -0.546875 C 10.796875 -0.472656 10.8125 -0.410156 10.8125 -0.359375 C 10.8125 -0.265625 10.769531 -0.179688 10.6875 -0.109375 C 10.613281 -0.0351562 10.53125 0 10.4375 0 L 9.59375 0 C 9.394531 0 9.25 -0.0507812 9.15625 -0.15625 C 9.0625 -0.257812 8.976562 -0.363281 8.90625 -0.46875 L 6.34375 -4.953125 L 3.265625 -4.953125 L 3.265625 -0.40625 C 3.265625 -0.289062 3.222656 -0.191406 3.140625 -0.109375 C 3.066406 -0.0351562 2.96875 0 2.84375 0 Z M 3.265625 -6.453125 L 6.171875 -6.453125 C 7.054688 -6.453125 7.710938 -6.632812 8.140625 -7 C 8.578125 -7.375 8.796875 -7.925781 8.796875 -8.65625 C 8.796875 -9.375 8.582031 -9.921875 8.15625 -10.296875 C 7.726562 -10.671875 7.066406 -10.859375 6.171875 -10.859375 L 3.265625 -10.859375 Z M 3.265625 -6.453125 "/></g></g></g><g fill="#ffffff" fill-opacity="1"><g transform="translate(227.599922, 171.444584)"><g><path d="M 1.9375 0 C 1.8125 0 1.710938 -0.0351562 1.640625 -0.109375 C 1.566406 -0.191406 1.53125 -0.289062 1.53125 -0.40625 L 1.53125 -11.9375 C 1.53125 -12.0625 1.566406 -12.160156 1.640625 -12.234375 C 1.710938 -12.304688 1.8125 -12.34375 1.9375 -12.34375 L 2.875 -12.34375 C 3 -12.34375 3.097656 -12.304688 3.171875 -12.234375 C 3.242188 -12.160156 3.28125 -12.0625 3.28125 -11.9375 L 3.28125 -0.40625 C 3.28125 -0.289062 3.242188 -0.191406 3.171875 -0.109375 C 3.097656 -0.0351562 3 0 2.875 0 Z M 1.9375 0 "/></g></g></g><g fill="#ffffff" fill-opacity="1"><g transform="translate(232.41476, 171.444584)"><g><path d="M 1.9375 0 C 1.8125 0 1.710938 -0.0351562 1.640625 -0.109375 C 1.566406 -0.191406 1.53125 -0.289062 1.53125 -0.40625 L 1.53125 -11.921875 C 1.53125 -12.054688 1.566406 -12.160156 1.640625 -12.234375 C 1.710938 -12.304688 1.8125 -12.34375 1.9375 -12.34375 L 6.78125 -12.34375 C 7.65625 -12.34375 8.367188 -12.195312 8.921875 -11.90625 C 9.484375 -11.625 9.894531 -11.234375 10.15625 -10.734375 C 10.425781 -10.242188 10.5625 -9.691406 10.5625 -9.078125 C 10.5625 -8.597656 10.484375 -8.1875 10.328125 -7.84375 C 10.171875 -7.5 9.972656 -7.21875 9.734375 -7 C 9.503906 -6.78125 9.273438 -6.609375 9.046875 -6.484375 C 9.503906 -6.265625 9.910156 -5.898438 10.265625 -5.390625 C 10.628906 -4.890625 10.8125 -4.28125 10.8125 -3.5625 C 10.8125 -2.914062 10.664062 -2.320312 10.375 -1.78125 C 10.082031 -1.238281 9.644531 -0.804688 9.0625 -0.484375 C 8.476562 -0.160156 7.765625 0 6.921875 0 Z M 3.265625 -1.421875 L 6.6875 -1.421875 C 7.4375 -1.421875 8.015625 -1.625 8.421875 -2.03125 C 8.835938 -2.445312 9.046875 -2.957031 9.046875 -3.5625 C 9.046875 -4.1875 8.835938 -4.703125 8.421875 -5.109375 C 8.015625 -5.515625 7.4375 -5.71875 6.6875 -5.71875 L 3.265625 -5.71875 Z M 3.265625 -7.125 L 6.515625 -7.125 C 7.265625 -7.125 7.832031 -7.296875 8.21875 -7.640625 C 8.601562 -7.992188 8.796875 -8.46875 8.796875 -9.0625 C 8.796875 -9.664062 8.601562 -10.125 8.21875 -10.4375 C 7.832031 -10.757812 7.265625 -10.921875 6.515625 -10.921875 L 3.265625 -10.921875 Z M 3.265625 -7.125 "/></g></g></g><g fill="#ffffff" fill-opacity="1"><g transform="translate(244.196132, 171.444584)"><g><path d="M 6.1875 0.171875 C 5.195312 0.171875 4.347656 0 3.640625 -0.34375 C 2.929688 -0.695312 2.382812 -1.234375 2 -1.953125 C 1.613281 -2.679688 1.421875 -3.617188 1.421875 -4.765625 L 1.421875 -11.921875 C 1.421875 -12.054688 1.457031 -12.160156 1.53125 -12.234375 C 1.601562 -12.304688 1.703125 -12.34375 1.828125 -12.34375 L 2.734375 -12.34375 C 2.859375 -12.34375 2.957031 -12.304688 3.03125 -12.234375 C 3.113281 -12.160156 3.15625 -12.054688 3.15625 -11.921875 L 3.15625 -4.734375 C 3.15625 -3.578125 3.425781 -2.722656 3.96875 -2.171875 C 4.507812 -1.617188 5.25 -1.34375 6.1875 -1.34375 C 7.113281 -1.34375 7.847656 -1.617188 8.390625 -2.171875 C 8.941406 -2.722656 9.21875 -3.578125 9.21875 -4.734375 L 9.21875 -11.921875 C 9.21875 -12.054688 9.253906 -12.160156 9.328125 -12.234375 C 9.410156 -12.304688 9.507812 -12.34375 9.625 -12.34375 L 10.546875 -12.34375 C 10.660156 -12.34375 10.753906 -12.304688 10.828125 -12.234375 C 10.910156 -12.160156 10.953125 -12.054688 10.953125 -11.921875 L 10.953125 -4.765625 C 10.953125 -3.617188 10.757812 -2.679688 10.375 -1.953125 C 10 -1.234375 9.457031 -0.695312 8.75 -0.34375 C 8.039062 0 7.1875 0.171875 6.1875 0.171875 Z M 6.1875 0.171875 "/></g></g></g><g fill="#ffffff" fill-opacity="1"><g transform="translate(256.559515, 171.444584)"><g><path d="M 5.984375 0.171875 C 4.898438 0.171875 4 -0.0234375 3.28125 -0.421875 C 2.570312 -0.816406 2.035156 -1.375 1.671875 -2.09375 C 1.304688 -2.8125 1.109375 -3.648438 1.078125 -4.609375 C 1.066406 -5.085938 1.0625 -5.601562 1.0625 -6.15625 C 1.0625 -6.707031 1.066406 -7.238281 1.078125 -7.75 C 1.109375 -8.695312 1.304688 -9.53125 1.671875 -10.25 C 2.035156 -10.96875 2.570312 -11.523438 3.28125 -11.921875 C 4 -12.328125 4.898438 -12.53125 5.984375 -12.53125 C 6.796875 -12.53125 7.503906 -12.414062 8.109375 -12.1875 C 8.722656 -11.96875 9.234375 -11.664062 9.640625 -11.28125 C 10.046875 -10.90625 10.351562 -10.484375 10.5625 -10.015625 C 10.78125 -9.554688 10.898438 -9.082031 10.921875 -8.59375 C 10.929688 -8.488281 10.894531 -8.398438 10.8125 -8.328125 C 10.738281 -8.253906 10.648438 -8.21875 10.546875 -8.21875 L 9.578125 -8.21875 C 9.472656 -8.21875 9.378906 -8.242188 9.296875 -8.296875 C 9.222656 -8.359375 9.171875 -8.46875 9.140625 -8.625 C 8.941406 -9.539062 8.566406 -10.171875 8.015625 -10.515625 C 7.472656 -10.859375 6.796875 -11.03125 5.984375 -11.03125 C 5.023438 -11.03125 4.269531 -10.757812 3.71875 -10.21875 C 3.164062 -9.6875 2.875 -8.832031 2.84375 -7.65625 C 2.800781 -6.6875 2.800781 -5.695312 2.84375 -4.6875 C 2.875 -3.507812 3.164062 -2.65625 3.71875 -2.125 C 4.269531 -1.59375 5.023438 -1.328125 5.984375 -1.328125 C 6.796875 -1.328125 7.472656 -1.492188 8.015625 -1.828125 C 8.566406 -2.171875 8.941406 -2.800781 9.140625 -3.71875 C 9.171875 -3.875 9.222656 -3.976562 9.296875 -4.03125 C 9.378906 -4.09375 9.472656 -4.125 9.578125 -4.125 L 10.546875 -4.125 C 10.648438 -4.125 10.738281 -4.09375 10.8125 -4.03125 C 10.894531 -3.96875 10.929688 -3.882812 10.921875 -3.78125 C 10.898438 -3.28125 10.78125 -2.796875 10.5625 -2.328125 C 10.351562 -1.859375 10.046875 -1.4375 9.640625 -1.0625 C 9.234375 -0.6875 8.722656 -0.382812 8.109375 -0.15625 C 7.503906 0.0625 6.796875 0.171875 5.984375 0.171875 Z M 5.984375 0.171875 "/></g></g></g><g fill="#ffffff" fill-opacity="1"><g transform="translate(268.305604, 171.444584)"><g><path d="M 1.9375 0 C 1.8125 0 1.710938 -0.0351562 1.640625 -0.109375 C 1.566406 -0.191406 1.53125 -0.289062 1.53125 -0.40625 L 1.53125 -11.9375 C 1.53125 -12.0625 1.566406 -12.160156 1.640625 -12.234375 C 1.710938 -12.304688 1.8125 -12.34375 1.9375 -12.34375 L 2.875 -12.34375 C 3 -12.34375 3.097656 -12.304688 3.171875 -12.234375 C 3.242188 -12.160156 3.28125 -12.0625 3.28125 -11.9375 L 3.28125 -0.40625 C 3.28125 -0.289062 3.242188 -0.191406 3.171875 -0.109375 C 3.097656 -0.0351562 3 0 2.875 0 Z M 1.9375 0 "/></g></g></g><g fill="#ffffff" fill-opacity="1"><g transform="translate(273.120442, 171.444584)"><g><path d="M 5.984375 0.171875 C 4.972656 0.171875 4.109375 0 3.390625 -0.34375 C 2.671875 -0.6875 2.113281 -1.21875 1.71875 -1.9375 C 1.332031 -2.664062 1.117188 -3.578125 1.078125 -4.671875 C 1.066406 -5.191406 1.0625 -5.6875 1.0625 -6.15625 C 1.0625 -6.632812 1.066406 -7.132812 1.078125 -7.65625 C 1.117188 -8.738281 1.34375 -9.640625 1.75 -10.359375 C 2.15625 -11.085938 2.71875 -11.628906 3.4375 -11.984375 C 4.164062 -12.347656 5.015625 -12.53125 5.984375 -12.53125 C 6.929688 -12.53125 7.765625 -12.347656 8.484375 -11.984375 C 9.210938 -11.628906 9.78125 -11.085938 10.1875 -10.359375 C 10.601562 -9.640625 10.828125 -8.738281 10.859375 -7.65625 C 10.890625 -7.132812 10.90625 -6.632812 10.90625 -6.15625 C 10.90625 -5.6875 10.890625 -5.191406 10.859375 -4.671875 C 10.828125 -3.578125 10.613281 -2.664062 10.21875 -1.9375 C 9.820312 -1.21875 9.265625 -0.6875 8.546875 -0.34375 C 7.835938 0 6.984375 0.171875 5.984375 0.171875 Z M 5.984375 -1.328125 C 6.878906 -1.328125 7.609375 -1.597656 8.171875 -2.140625 C 8.742188 -2.679688 9.054688 -3.554688 9.109375 -4.765625 C 9.128906 -5.296875 9.140625 -5.769531 9.140625 -6.1875 C 9.140625 -6.601562 9.128906 -7.066406 9.109375 -7.578125 C 9.078125 -8.390625 8.921875 -9.046875 8.640625 -9.546875 C 8.367188 -10.054688 8.003906 -10.429688 7.546875 -10.671875 C 7.085938 -10.910156 6.566406 -11.03125 5.984375 -11.03125 C 5.390625 -11.03125 4.863281 -10.910156 4.40625 -10.671875 C 3.945312 -10.429688 3.578125 -10.054688 3.296875 -9.546875 C 3.023438 -9.046875 2.875 -8.390625 2.84375 -7.578125 C 2.832031 -7.066406 2.828125 -6.601562 2.828125 -6.1875 C 2.828125 -5.769531 2.832031 -5.296875 2.84375 -4.765625 C 2.882812 -3.554688 3.191406 -2.679688 3.765625 -2.140625 C 4.347656 -1.597656 5.085938 -1.328125 5.984375 -1.328125 Z M 5.984375 -1.328125 "/></g></g></g><g fill="#ffffff" fill-opacity="1"><g transform="translate(285.060543, 171.444584)"><g><path d="M 1.9375 0 C 1.8125 0 1.710938 -0.0351562 1.640625 -0.109375 C 1.566406 -0.191406 1.53125 -0.289062 1.53125 -0.40625 L 1.53125 -11.921875 C 1.53125 -12.054688 1.566406 -12.160156 1.640625 -12.234375 C 1.710938 -12.304688 1.8125 -12.34375 1.9375 -12.34375 L 2.75 -12.34375 C 2.894531 -12.34375 3 -12.3125 3.0625 -12.25 C 3.132812 -12.1875 3.175781 -12.132812 3.1875 -12.09375 L 9.046875 -3.109375 L 9.046875 -11.921875 C 9.046875 -12.054688 9.082031 -12.160156 9.15625 -12.234375 C 9.226562 -12.304688 9.328125 -12.34375 9.453125 -12.34375 L 10.296875 -12.34375 C 10.429688 -12.34375 10.535156 -12.304688 10.609375 -12.234375 C 10.679688 -12.160156 10.71875 -12.054688 10.71875 -11.921875 L 10.71875 -0.421875 C 10.71875 -0.304688 10.679688 -0.207031 10.609375 -0.125 C 10.535156 -0.0390625 10.4375 0 10.3125 0 L 9.46875 0 C 9.34375 0 9.242188 -0.0351562 9.171875 -0.109375 C 9.109375 -0.179688 9.066406 -0.226562 9.046875 -0.25 L 3.203125 -9.15625 L 3.203125 -0.40625 C 3.203125 -0.289062 3.164062 -0.191406 3.09375 -0.109375 C 3.019531 -0.0351562 2.914062 0 2.78125 0 Z M 1.9375 0 "/></g></g></g><g fill="#ffffff" fill-opacity="1"><g transform="translate(297.318103, 171.444584)"><g><path d="M 1.9375 0 C 1.8125 0 1.710938 -0.0351562 1.640625 -0.109375 C 1.566406 -0.191406 1.53125 -0.289062 1.53125 -0.40625 L 1.53125 -11.921875 C 1.53125 -12.054688 1.566406 -12.160156 1.640625 -12.234375 C 1.710938 -12.304688 1.8125 -12.34375 1.9375 -12.34375 L 9.21875 -12.34375 C 9.351562 -12.34375 9.453125 -12.304688 9.515625 -12.234375 C 9.585938 -12.160156 9.625 -12.054688 9.625 -11.921875 L 9.625 -11.25 C 9.625 -11.125 9.585938 -11.023438 9.515625 -10.953125 C 9.453125 -10.878906 9.351562 -10.84375 9.21875 -10.84375 L 3.234375 -10.84375 L 3.234375 -6.984375 L 8.84375 -6.984375 C 8.96875 -6.984375 9.066406 -6.941406 9.140625 -6.859375 C 9.210938 -6.785156 9.25 -6.6875 9.25 -6.5625 L 9.25 -5.90625 C 9.25 -5.789062 9.210938 -5.691406 9.140625 -5.609375 C 9.066406 -5.535156 8.96875 -5.5 8.84375 -5.5 L 3.234375 -5.5 L 3.234375 -1.5 L 9.359375 -1.5 C 9.492188 -1.5 9.59375 -1.460938 9.65625 -1.390625 C 9.726562 -1.316406 9.765625 -1.21875 9.765625 -1.09375 L 9.765625 -0.40625 C 9.765625 -0.289062 9.726562 -0.191406 9.65625 -0.109375 C 9.59375 -0.0351562 9.492188 0 9.359375 0 Z M 1.9375 0 "/></g></g></g><g fill="#ffffff" fill-opacity="1"><g transform="translate(308.005991, 171.444584)"><g><path d="M 5.5 0.171875 C 4.476562 0.171875 3.617188 0.015625 2.921875 -0.296875 C 2.234375 -0.617188 1.703125 -1.03125 1.328125 -1.53125 C 0.960938 -2.03125 0.765625 -2.554688 0.734375 -3.109375 C 0.734375 -3.203125 0.769531 -3.285156 0.84375 -3.359375 C 0.925781 -3.429688 1.019531 -3.46875 1.125 -3.46875 L 2.03125 -3.46875 C 2.164062 -3.46875 2.269531 -3.429688 2.34375 -3.359375 C 2.414062 -3.296875 2.460938 -3.21875 2.484375 -3.125 C 2.554688 -2.84375 2.703125 -2.5625 2.921875 -2.28125 C 3.148438 -2.007812 3.472656 -1.78125 3.890625 -1.59375 C 4.304688 -1.414062 4.84375 -1.328125 5.5 -1.328125 C 6.507812 -1.328125 7.253906 -1.503906 7.734375 -1.859375 C 8.210938 -2.222656 8.453125 -2.703125 8.453125 -3.296875 C 8.453125 -3.710938 8.320312 -4.046875 8.0625 -4.296875 C 7.8125 -4.546875 7.425781 -4.769531 6.90625 -4.96875 C 6.394531 -5.175781 5.726562 -5.394531 4.90625 -5.625 C 4.039062 -5.875 3.328125 -6.144531 2.765625 -6.4375 C 2.203125 -6.726562 1.78125 -7.09375 1.5 -7.53125 C 1.226562 -7.96875 1.09375 -8.519531 1.09375 -9.1875 C 1.09375 -9.820312 1.257812 -10.390625 1.59375 -10.890625 C 1.9375 -11.390625 2.429688 -11.785156 3.078125 -12.078125 C 3.734375 -12.378906 4.515625 -12.53125 5.421875 -12.53125 C 6.148438 -12.53125 6.785156 -12.429688 7.328125 -12.234375 C 7.878906 -12.035156 8.335938 -11.773438 8.703125 -11.453125 C 9.066406 -11.128906 9.34375 -10.78125 9.53125 -10.40625 C 9.71875 -10.039062 9.816406 -9.679688 9.828125 -9.328125 C 9.828125 -9.242188 9.796875 -9.164062 9.734375 -9.09375 C 9.679688 -9.019531 9.585938 -8.984375 9.453125 -8.984375 L 8.515625 -8.984375 C 8.429688 -8.984375 8.34375 -9.003906 8.25 -9.046875 C 8.164062 -9.097656 8.101562 -9.1875 8.0625 -9.3125 C 7.988281 -9.789062 7.71875 -10.195312 7.25 -10.53125 C 6.78125 -10.863281 6.171875 -11.03125 5.421875 -11.03125 C 4.648438 -11.03125 4.023438 -10.878906 3.546875 -10.578125 C 3.078125 -10.285156 2.84375 -9.828125 2.84375 -9.203125 C 2.84375 -8.804688 2.953125 -8.472656 3.171875 -8.203125 C 3.398438 -7.941406 3.753906 -7.710938 4.234375 -7.515625 C 4.710938 -7.316406 5.34375 -7.101562 6.125 -6.875 C 7.0625 -6.613281 7.828125 -6.335938 8.421875 -6.046875 C 9.023438 -5.765625 9.472656 -5.410156 9.765625 -4.984375 C 10.054688 -4.554688 10.203125 -4.003906 10.203125 -3.328125 C 10.203125 -2.585938 10.003906 -1.957031 9.609375 -1.4375 C 9.222656 -0.914062 8.679688 -0.515625 7.984375 -0.234375 C 7.285156 0.0351562 6.457031 0.171875 5.5 0.171875 Z M 5.5 0.171875 "/></g></g></g></svg>