<?xml version="1.0" encoding="UTF-8"?>
<!DOCTYPE svg PUBLIC "-//W3C//DTD SVG 1.1//EN" "http://www.w3.org/Graphics/SVG/1.1/DTD/svg11.dtd">
<svg xmlns="http://www.w3.org/2000/svg" version="1.1" width="260px" height="260px" style="shape-rendering:geometricPrecision; text-rendering:geometricPrecision; image-rendering:optimizeQuality; fill-rule:evenodd; clip-rule:evenodd" xmlns:xlink="http://www.w3.org/1999/xlink">
<g><path style="opacity:1" fill="#fefffe" d="M 162.5,45.5 C 178.068,50.533 191.235,59.1996 202,71.5C 203.174,75.0458 203.84,78.7125 204,82.5C 208.721,89.2755 212.388,96.6089 215,104.5C 217.814,116.346 219.647,128.346 220.5,140.5C 222.795,141.432 225.129,142.265 227.5,143C 228.833,146.333 228.833,149.667 227.5,153C 216.825,153.637 206.158,153.97 195.5,154C 189.293,146.396 181.293,142.896 171.5,143.5C 171.85,126.35 163.517,118.85 146.5,121C 139.232,123.77 134.565,128.937 132.5,136.5C 113.763,131.801 98.7635,137.301 87.5,153C 67.9014,155.395 48.2347,156.062 28.5,155C 25.8333,151.667 25.8333,148.333 28.5,145C 40.0213,141.822 50.5213,136.656 60,129.5C 63.3427,119.304 67.176,109.304 71.5,99.5C 69.5776,95.701 69.0776,91.701 70,87.5C 72.4476,83.3851 75.2809,79.5518 78.5,76C 80.5,75.6667 82.5,75.3333 84.5,75C 103.914,55.138 127.58,46.138 155.5,48C 158.004,47.3024 160.337,46.4691 162.5,45.5 Z M 136.5,58.5 C 161.74,57.0433 182.24,66.0433 198,85.5C 199.934,88.0345 201.268,90.7012 202,93.5C 178.45,66.0929 149.617,58.2595 115.5,70C 98.7172,79.116 85.5506,91.9493 76,108.5C 82.4669,87.4901 95.9669,72.6567 116.5,64C 123.129,61.5126 129.796,59.6793 136.5,58.5 Z M 149.5,132.5 C 154.717,131.439 158.05,133.439 159.5,138.5C 157.181,145.273 153.181,146.607 147.5,142.5C 145.81,138.631 146.476,135.298 149.5,132.5 Z"/></g>
<g><path style="opacity:1" fill="#fefffe" d="M 150.5,123.5 C 152.326,124.438 154.159,125.438 156,126.5C 158.916,124.707 161.082,125.374 162.5,128.5C 162.291,129.086 161.957,129.586 161.5,130C 162.509,132.172 164.176,133.338 166.5,133.5C 166.421,134.93 166.754,136.264 167.5,137.5C 166.289,138.874 165.289,140.374 164.5,142C 165.33,143.465 165.496,144.965 165,146.5C 162.805,147.595 160.638,148.595 158.5,149.5C 157.167,150.5 157.167,151.5 158.5,152.5C 161.126,154.748 163.793,154.581 166.5,152C 168.394,150.899 169.061,149.566 168.5,148C 171.146,147.503 173.813,147.336 176.5,147.5C 176.5,148.833 176.5,150.167 176.5,151.5C 178.677,151.586 180.677,152.253 182.5,153.5C 183.62,152.167 184.953,151.667 186.5,152C 188.167,153.667 189.833,155.333 191.5,157C 190.643,157.689 189.977,158.522 189.5,159.5C 190.747,161.323 191.414,163.323 191.5,165.5C 192.833,165.5 194.167,165.5 195.5,165.5C 195.5,168.167 195.5,170.833 195.5,173.5C 193.876,173.36 192.71,174.027 192,175.5C 190.047,178.257 190.213,180.757 192.5,183C 191.547,184.955 190.213,186.622 188.5,188C 186.953,188.333 185.62,187.833 184.5,186.5C 182.513,188.327 180.179,189.327 177.5,189.5C 177.5,190.833 177.5,192.167 177.5,193.5C 174.833,193.5 172.167,193.5 169.5,193.5C 169.67,192.178 169.337,191.011 168.5,190C 166.385,189.443 164.385,188.609 162.5,187.5C 161.38,188.833 160.047,189.333 158.5,189C 156.981,187.649 155.648,186.149 154.5,184.5C 156.748,181.874 156.581,179.207 154,176.5C 152.644,175.62 151.144,175.286 149.5,175.5C 149.5,172.833 149.5,170.167 149.5,167.5C 150.822,167.67 151.989,167.337 153,166.5C 156.227,163.314 156.06,160.48 152.5,158C 154.019,156.649 155.352,155.149 156.5,153.5C 155.609,152.41 154.609,152.41 153.5,153.5C 152.387,151.969 150.887,150.969 149,150.5C 147.45,150.95 145.95,151.117 144.5,151C 143.166,146.658 140.833,142.991 137.5,140C 138.477,138.503 139.477,137.003 140.5,135.5C 138.743,132.441 139.409,130.108 142.5,128.5C 143.086,128.709 143.586,129.043 144,129.5C 146.172,128.491 147.338,126.824 147.5,124.5C 148.791,124.737 149.791,124.404 150.5,123.5 Z M 149.5,132.5 C 146.476,135.298 145.81,138.631 147.5,142.5C 153.181,146.607 157.181,145.273 159.5,138.5C 158.05,133.439 154.717,131.439 149.5,132.5 Z M 170.5,160.5 C 180.024,160.522 183.858,165.189 182,174.5C 176.492,182.092 170.492,182.425 164,175.5C 161.809,168.563 163.976,163.563 170.5,160.5 Z"/></g>
<g><path style="opacity:1" fill="#fefffe" d="M 110.5,140.5 C 112.747,141.604 114.58,143.271 116,145.5C 118.715,144.262 121.382,144.262 124,145.5C 125.102,143.619 126.435,141.952 128,140.5C 131.373,141.621 134.539,143.121 137.5,145C 136.833,146.333 136.167,147.667 135.5,149C 138.128,150.626 140.461,152.626 142.5,155C 144.235,155.651 145.902,155.485 147.5,154.5C 149.068,157.694 150.735,160.86 152.5,164C 151.421,164.956 150.255,165.789 149,166.5C 148.333,169.833 148.333,173.167 149,176.5C 150.011,177.337 151.178,177.67 152.5,177.5C 152.186,180.947 151.352,184.28 150,187.5C 147.828,187.933 145.661,188.266 143.5,188.5C 141.35,191.151 139.017,193.651 136.5,196C 137.167,197.333 137.833,198.667 138.5,200C 135.209,201.597 131.875,203.097 128.5,204.5C 127.585,203.672 126.919,202.672 126.5,201.5C 122.878,200.341 119.211,200.175 115.5,201C 114.845,202.487 113.845,203.653 112.5,204.5C 109.573,203.199 106.573,202.199 103.5,201.5C 103.698,199.425 103.865,197.425 104,195.5C 101.667,193.167 99.3333,190.833 97,188.5C 94.2323,191.088 92.2323,190.755 91,187.5C 90.3054,185.278 89.4721,183.111 88.5,181C 89.9525,179.435 91.6191,178.102 93.5,177C 92.8747,174.2 92.208,171.366 91.5,168.5C 90.2638,167.754 88.9305,167.421 87.5,167.5C 88.0906,164.06 89.0906,160.727 90.5,157.5C 92.7808,156.815 95.1141,156.649 97.5,157C 99.3404,154.331 101.34,151.831 103.5,149.5C 102.772,147.845 102.605,146.179 103,144.5C 105.769,143.534 108.269,142.201 110.5,140.5 Z M 117.5,158.5 C 131.327,159.156 136.494,166.156 133,179.5C 126.355,187.6 118.689,188.6 110,182.5C 103.615,171.624 106.115,163.624 117.5,158.5 Z"/></g>
</svg>
