<svg xmlns="http://www.w3.org/2000/svg" xmlns:xlink="http://www.w3.org/1999/xlink" version="1.1" width="1000" height="1000" viewBox="0 0 1000 1000" xml:space="preserve">
<desc>Created with Fabric.js 3.5.0</desc>
<defs>
</defs>
<rect x="0" y="0" width="100%" height="100%" fill="#ffffff"/>
<g transform="matrix(1.4294 0 0 1.4294 500.769 500.769)" id="289850">
<g style="" vector-effect="non-scaling-stroke">
		<g transform="matrix(1 0 0 1 0 0)" id="457">
<linearGradient id="SVGID_2" gradientUnits="userSpaceOnUse" gradientTransform="matrix(1 0 0 1 -349 -349)" x1="349" y1="698" x2="349" y2="0">
<stop offset="0%" style="stop-color:rgb(128,128,128);stop-opacity: 0.25"/>
<stop offset="54%" style="stop-color:rgb(128,128,128);stop-opacity: 0.12"/>
<stop offset="100%" style="stop-color:rgb(128,128,128);stop-opacity: 0.1"/>
</linearGradient>
<circle style="stroke: none; stroke-width: 1; stroke-dasharray: none; stroke-linecap: butt; stroke-dashoffset: 0; stroke-linejoin: miter; stroke-miterlimit: 4; is-custom-font: none; font-file-url: none; fill: url(#SVGID_2); fill-rule: nonzero; opacity: 0.5;" cx="0" cy="0" r="349"/>
</g>
		<g transform="matrix(1 0 0 1 0.68 -2.23)" id="457">
<circle style="stroke: none; stroke-width: 1; stroke-dasharray: none; stroke-linecap: butt; stroke-dashoffset: 0; stroke-linejoin: miter; stroke-miterlimit: 4; is-custom-font: none; font-file-url: none; fill: rgb(245,245,245); fill-rule: nonzero; opacity: 1;" cx="0" cy="0" r="341.64"/>
</g>
		<g transform="matrix(1 0 0 1 -3.225 276.3003)" id="457">
<path style="stroke: none; stroke-width: 1; stroke-dasharray: none; stroke-linecap: butt; stroke-dashoffset: 0; stroke-linejoin: miter; stroke-miterlimit: 4; is-custom-font: none; font-file-url: none; fill: rgb(0,18,42); fill-rule: nonzero; opacity: 1;" transform=" translate(-596.775, -726.3003)" d="M 601 790.76 a 340 340 0 0 0 187.79 -56.2 c -12.59 -68.8 -60.5 -72.72 -60.5 -72.72 H 464.09 s -45.21 3.71 -59.33 67 A 340.07 340.07 0 0 0 601 790.76 Z" stroke-linecap="round"/>
</g>
		<g transform="matrix(1 0 0 1 -2.63 -9.43)" id="457">
<circle style="stroke: none; stroke-width: 1; stroke-dasharray: none; stroke-linecap: butt; stroke-dashoffset: 0; stroke-linejoin: miter; stroke-miterlimit: 4; is-custom-font: none; font-file-url: none; fill: rgb(51,51,51); fill-rule: nonzero; opacity: 1;" cx="0" cy="0" r="164.9"/>
</g>
		<g transform="matrix(1 0 0 1 -3.02 196.6)" id="457">
<path style="stroke: none; stroke-width: 1; stroke-dasharray: none; stroke-linecap: butt; stroke-dashoffset: 0; stroke-linejoin: miter; stroke-miterlimit: 4; is-custom-font: none; font-file-url: none; fill: rgb(0,0,0); fill-rule: nonzero; opacity: 0.1;" transform=" translate(-345.98, -545.6)" d="M 293.15 476.92 H 398.81 a 0 0 0 0 1 0 0 v 84.53 A 52.83 52.83 0 0 1 346 614.28 h 0 a 52.83 52.83 0 0 1 -52.83 -52.83 V 476.92 a 0 0 0 0 1 0 0 Z" stroke-linecap="round"/>
</g>
		<g transform="matrix(1 0 0 1 -2.99 192.685)" id="457">
<path style="stroke: none; stroke-width: 1; stroke-dasharray: none; stroke-linecap: butt; stroke-dashoffset: 0; stroke-linejoin: miter; stroke-miterlimit: 4; is-custom-font: none; font-file-url: none; fill: rgb(253,183,151); fill-rule: nonzero; opacity: 1;" transform=" translate(-346.01, -541.685)" d="M 296.5 473 h 99 a 3.35 3.35 0 0 1 3.35 3.35 v 81.18 A 52.83 52.83 0 0 1 346 610.37 h 0 a 52.83 52.83 0 0 1 -52.83 -52.83 V 476.35 A 3.35 3.35 0 0 1 296.5 473 Z" stroke-linecap="round"/>
</g>
		<g transform="matrix(1 0 0 1 -2.83 166.2737)" id="457">
<path style="stroke: none; stroke-width: 1; stroke-dasharray: none; stroke-linecap: butt; stroke-dashoffset: 0; stroke-linejoin: miter; stroke-miterlimit: 4; is-custom-font: none; font-file-url: none; fill: rgb(0,0,0); fill-rule: nonzero; opacity: 0.1;" transform=" translate(-597.17, -616.2737)" d="M 544.34 617.82 a 152.07 152.07 0 0 0 105.66 0.29 v -13 H 544.34 Z" stroke-linecap="round"/>
</g>
		<g transform="matrix(1 0 0 1 -2.63 23.44)" id="457">
<circle style="stroke: none; stroke-width: 1; stroke-dasharray: none; stroke-linecap: butt; stroke-dashoffset: 0; stroke-linejoin: miter; stroke-miterlimit: 4; is-custom-font: none; font-file-url: none; fill: rgb(253,183,151); fill-rule: nonzero; opacity: 1;" cx="0" cy="0" r="151.45"/>
</g>
		<g transform="matrix(1 0 0 1 11.43 -94.4542)" id="457">
<path style="stroke: none; stroke-width: 1; stroke-dasharray: none; stroke-linecap: butt; stroke-dashoffset: 0; stroke-linejoin: miter; stroke-miterlimit: 4; is-custom-font: none; font-file-url: none; fill: rgb(0,0,0); fill-rule: nonzero; opacity: 0.1;" transform=" translate(-611.43, -355.5458)" d="M 489.49 335.68 S 553.32 465.24 733.37 390 l -41.92 -65.73 l -74.31 -26.67 Z" stroke-linecap="round"/>
</g>
		<g transform="matrix(1 0 0 1 11.43 -96.3689)" id="457">
<path style="stroke: none; stroke-width: 1; stroke-dasharray: none; stroke-linecap: butt; stroke-dashoffset: 0; stroke-linejoin: miter; stroke-miterlimit: 4; is-custom-font: none; font-file-url: none; fill: rgb(51,51,51); fill-rule: nonzero; opacity: 1;" transform=" translate(-611.43, -353.6311)" d="M 489.49 333.78 s 63.83 129.56 243.88 54.3 l -41.92 -65.73 l -74.31 -26.67 Z" stroke-linecap="round"/>
</g>
		<g transform="matrix(1 0 0 1 -2.8582 -151.2487)" id="457">
<path style="stroke: none; stroke-width: 1; stroke-dasharray: none; stroke-linecap: butt; stroke-dashoffset: 0; stroke-linejoin: miter; stroke-miterlimit: 4; is-custom-font: none; font-file-url: none; fill: rgb(51,51,51); fill-rule: nonzero; opacity: 1;" transform=" translate(-597.1418, -298.7513)" d="M 488.93 325 a 87.49 87.49 0 0 1 21.69 -35.27 c 29.79 -29.45 78.63 -35.66 103.68 -69.24 c 6 9.32 1.36 23.65 -9 27.65 c 24 -0.16 51.81 -2.26 65.38 -22 a 44.89 44.89 0 0 1 -7.57 47.4 c 21.27 1 44 15.4 45.34 36.65 c 0.92 14.16 -8 27.56 -19.59 35.68 s -25.71 11.85 -39.56 14.9 C 608.86 369.7 462.54 407.07 488.93 325 Z" stroke-linecap="round"/>
</g>
		<g transform="matrix(1 0 0 1 -154.14 23.3)" id="457">
<ellipse style="stroke: none; stroke-width: 1; stroke-dasharray: none; stroke-linecap: butt; stroke-dashoffset: 0; stroke-linejoin: miter; stroke-miterlimit: 4; is-custom-font: none; font-file-url: none; fill: rgb(253,183,151); fill-rule: nonzero; opacity: 1;" cx="0" cy="0" rx="14.09" ry="26.42"/>
</g>
		<g transform="matrix(1 0 0 1 148.8 23.3)" id="457">
<ellipse style="stroke: none; stroke-width: 1; stroke-dasharray: none; stroke-linecap: butt; stroke-dashoffset: 0; stroke-linejoin: miter; stroke-miterlimit: 4; is-custom-font: none; font-file-url: none; fill: rgb(253,183,151); fill-rule: nonzero; opacity: 1;" cx="0" cy="0" rx="14.09" ry="26.42"/>
</g>
</g>
</g>
</svg>